<svg width="15" height="15" viewBox="0 0 15 15" fill="none" xmlns="http://www.w3.org/2000/svg">
<path fill-rule="evenodd" clip-rule="evenodd" d="M3.20429 1.19329C2.20267 1.44369 1.5 2.34366 1.5 3.37611V12.8694H0.75C0.335786 12.8694 0 13.2052 0 13.6194C0 14.0336 0.335786 14.3694 0.75 14.3694H14.25C14.6642 14.3694 15 14.0336 15 13.6194C15 13.2052 14.6642 12.8694 14.25 12.8694H13.5V6.11938C13.5 4.87674 12.4926 3.86938 11.25 3.86938H10.5V2.25111C10.5 0.787323 9.12438 -0.286732 7.7043 0.0682877L3.20429 1.19329ZM12 6.11938V12.8694H10.5V5.36938H11.25C11.6642 5.36938 12 5.70517 12 6.11938ZM5.25 9.86938C4.83579 9.86938 4.5 10.2052 4.5 10.6194C4.5 11.0336 4.83579 11.3694 5.25 11.3694H6.75C7.16421 11.3694 7.5 11.0336 7.5 10.6194C7.5 10.2052 7.16421 9.86938 6.75 9.86938H5.25ZM4.5 7.61938C4.5 7.20517 4.83579 6.86938 5.25 6.86938H6.75C7.16421 6.86938 7.5 7.20517 7.5 7.61938C7.5 8.0336 7.16421 8.36938 6.75 8.36938H5.25C4.83579 8.36938 4.5 8.0336 4.5 7.61938ZM5.25 3.86938C4.83579 3.86938 4.5 4.20517 4.5 4.61938C4.5 5.0336 4.83579 5.36938 5.25 5.36938H6.75C7.16421 5.36938 7.5 5.0336 7.5 4.61938C7.5 4.20517 7.16421 3.86938 6.75 3.86938H5.25Z" fill="#808191"/>
</svg>
