<svg width="14" height="14" viewBox="0 0 14 14" fill="none" xmlns="http://www.w3.org/2000/svg">
<path d="M13.8955 7.0331C13.8955 7.21842 13.8549 7.39531 13.7739 7.56315C13.6927 7.73119 13.5885 7.87874 13.4611 8.00613C13.3334 8.1339 13.1831 8.23796 13.0092 8.31892C12.8356 8.39997 12.6559 8.44056 12.4706 8.44056C12.2275 8.44056 11.9956 8.37707 11.7757 8.24951C11.5555 8.12224 11.3818 7.9542 11.2544 7.74566H7.72765V11.2726C7.93598 11.4004 8.10393 11.5741 8.2315 11.7939C8.35876 12.0141 8.42255 12.2456 8.42255 12.4889C8.42255 12.6743 8.38478 12.8511 8.30964 13.019C8.23421 13.187 8.12994 13.3346 7.99686 13.4619C7.86346 13.5897 7.71289 13.6938 7.54516 13.7747C7.37711 13.8558 7.20033 13.8964 7.01511 13.8964C6.82969 13.8964 6.6529 13.8559 6.48516 13.7747C6.31712 13.6938 6.16644 13.5897 6.03347 13.4619C5.90007 13.3347 5.79591 13.187 5.72068 13.019C5.64524 12.851 5.60778 12.6743 5.60778 12.4889C5.60778 12.2457 5.67126 12.0141 5.79883 11.7939C5.92609 11.5741 6.09413 11.4004 6.30267 11.2726L6.30287 7.7454H2.70647C2.57891 7.95393 2.40502 8.12199 2.18517 8.24925C1.96499 8.37682 1.73347 8.4403 1.49019 8.4403C1.30476 8.4403 1.12798 8.39982 0.960242 8.31866C0.792194 8.2377 0.641513 8.13364 0.508545 8.00587C0.375353 7.8786 0.271089 7.73096 0.195756 7.56289C0.120321 7.39515 0.0828552 7.21845 0.0828552 7.03305C0.0828552 6.84802 0.120321 6.66832 0.195756 6.49446C0.270891 6.32069 0.375355 6.17033 0.508545 6.04276C0.641637 5.9153 0.792199 5.81123 0.960242 5.72998C1.12799 5.64902 1.30486 5.60833 1.49019 5.60833C1.73337 5.60833 1.965 5.67202 2.18517 5.79938C2.40505 5.92695 2.57883 6.09469 2.70647 6.30323H6.30313L6.30303 2.70683C6.0945 2.57936 5.92644 2.40559 5.79918 2.18542C5.67162 1.96564 5.60814 1.73372 5.60814 1.49044C5.60814 1.30542 5.6456 1.12854 5.72104 0.960495C5.79617 0.79275 5.90043 0.642075 6.03382 0.508798C6.16692 0.375706 6.31748 0.271442 6.48552 0.196009C6.65337 0.120875 6.83004 0.0830078 7.01547 0.0830078C7.20069 0.0830078 7.37747 0.120877 7.54552 0.196009C7.71326 0.271344 7.86394 0.375708 7.99721 0.508798C8.13031 0.642191 8.23437 0.792761 8.31 0.960495C8.38514 1.12854 8.4229 1.30532 8.4229 1.49044C8.4229 1.73362 8.35912 1.96564 8.23185 2.18542C8.10429 2.4056 7.93634 2.57936 7.72801 2.70683V6.30349H11.255C11.3824 6.09496 11.5561 5.92721 11.7763 5.79964C11.9962 5.67217 12.228 5.60859 12.4713 5.60859C12.6565 5.60859 12.8362 5.64917 13.0099 5.73023C13.1836 5.81129 13.334 5.91556 13.4618 6.04302C13.589 6.17059 13.6932 6.32097 13.7745 6.49472C13.8551 6.66819 13.8957 6.84798 13.8957 7.03302L13.8955 7.0331Z" fill="#808191"/>
</svg>
