<svg width="15" height="12" viewBox="0 0 15 12" fill="none" xmlns="http://www.w3.org/2000/svg">
<path d="M0.403226 0.964382C0.260562 1.16893 0.348101 1.44059 0.560148 1.57186L7.10515 5.62353C7.34703 5.77327 7.65281 5.77327 7.89469 5.62353L14.4398 1.57179C14.6519 1.44052 14.7394 1.16885 14.5967 0.964299C14.1901 0.381386 13.5146 0 12.75 0H2.25C1.48536 0 0.809808 0.381422 0.403226 0.964382Z" fill="#808191"/>
<path d="M15 3.88674C15 3.49498 14.5699 3.2554 14.2368 3.4616L8.68422 6.89893C7.95858 7.34813 7.04126 7.34813 6.31562 6.89893L0.763178 3.4617C0.430082 3.2555 0 3.49508 0 3.88683V9.75C0 10.9926 1.00736 12 2.25 12H12.75C13.9926 12 15 10.9926 15 9.75V3.88674Z" fill="#808191"/>
</svg>
