<svg width="60" height="60" viewBox="0 0 61 60" fill="none" xmlns="http://www.w3.org/2000/svg">
<path d="M40.1794 1.69087C35.7243 0.128258 30.9634 -0.360838 26.2836 0.263355C21.6039 0.887549 17.1376 2.60741 13.2478 5.28308C9.35808 7.95874 6.15473 11.5147 3.89828 15.6617C1.64183 19.8087 0.395991 24.4298 0.262072 29.149L14.8299 29.5624C14.8988 27.1357 15.5394 24.7596 16.6997 22.6271C17.86 20.4947 19.5072 18.6662 21.5073 17.2903C23.5075 15.9145 25.8041 15.0301 28.2105 14.7092C30.6168 14.3882 33.065 14.6397 35.3558 15.4432L40.1794 1.69087Z" fill="#F2F6FC"/>
<path d="M0.493027 26.1892C-0.235411 31.8772 0.68163 37.6548 3.13553 42.8377C5.58943 48.0205 9.47737 52.3916 14.3388 55.4329C19.2003 58.4743 24.8316 60.0587 30.5658 59.9983C36.2999 59.938 41.8966 58.2355 46.693 55.0924C51.4893 51.9494 55.2844 47.4975 57.6287 42.2641C59.9729 37.0307 60.7682 31.2351 59.9202 25.5636C59.0722 19.8922 56.6165 14.5827 52.8439 10.2639C49.0714 5.94509 44.1401 2.79801 38.6342 1.19539L34.5612 15.1884C37.3924 16.0125 39.9281 17.6308 41.868 19.8515C43.8079 22.0723 45.0706 24.8025 45.5067 27.7188C45.9427 30.6351 45.5338 33.6152 44.3284 36.3063C43.1229 38.9974 41.1715 41.2865 38.7051 42.9027C36.2388 44.5189 33.3609 45.3944 30.4124 45.4254C27.4638 45.4564 24.5682 44.6418 22.0683 43.0778C19.5685 41.5139 17.5693 39.2663 16.3075 36.6012C15.0457 33.9361 14.5741 30.9652 14.9487 28.0404L0.493027 26.1892Z" fill="#FD8539"/>
</svg>
